<svg width="96" height="96" viewBox="0 0 96 96" fill="none" xmlns="http://www.w3.org/2000/svg">
<path fill-rule="evenodd" clip-rule="evenodd" d="M86.5507 50.9588C86.5507 50.9588 94.9034 51.9451 94.9034 54.904C94.9034 57.8629 94.9034 63.452 94.9034 63.452C94.9034 63.452 91.6908 67.0684 88.157 68.0547C84.6232 69.041 84.9444 68.0547 83.3381 71.0136C81.4106 73.9725 76.2705 79.5616 71.7729 81.5342L69.2029 93.041C69.2029 93.041 68.8816 94.3561 67.2753 94.3561C65.9903 94.3561 60.529 94.3561 60.529 94.3561C60.529 94.3561 58.9227 94.3561 58.2802 92.0547C57.6377 89.7533 57.3164 86.4657 57.3164 86.4657H40.9324L39.3261 92.3835C39.3261 92.3835 39.3261 94.6849 37.3986 94.6849C35.1498 94.6849 29.6884 94.6849 29.6884 94.6849C29.6884 94.6849 28.0821 93.3698 27.7609 90.0821C27.4396 86.4657 27.1184 82.8492 27.1184 82.8492C27.1184 82.8492 9.77054 73.315 12.0193 55.8903C13.9469 38.4657 19.4082 37.1506 29.3672 29.589C31.9372 33.2054 35.7923 35.5068 39.9686 36.4931C34.5072 36.8218 30.0097 38.1369 30.0097 38.1369C30.0097 38.1369 34.5072 36.8218 39.9686 36.4931C40.9324 36.4931 42.2174 36.8218 43.1812 36.8218C44.7874 36.8218 46.0725 36.4931 47.3575 36.1643C50.8913 36.4931 54.1039 37.1506 56.6739 38.7944C54.1039 37.1506 50.8913 36.4931 47.3575 36.1643C51.8551 35.178 55.7101 32.2191 57.9589 28.6027L62.7778 28.9314L64.0628 29.589C62.4565 31.2328 62.4565 32.2191 62.4565 32.2191C62.4565 32.2191 60.8502 37.4794 65.6691 43.0684C70.4879 48.6575 78.198 43.0684 78.198 43.0684C78.198 43.0684 78.5193 41.0958 79.1618 38.7944C81.4106 40.767 85.2657 45.041 86.5507 50.9588Z" fill="#FF7BAC" stroke="black" stroke-width="0.676372" stroke-linejoin="round"/>
<path fill-rule="evenodd" clip-rule="evenodd" d="M43.1813 1.31506C52.8189 1.31506 60.8503 9.20547 60.8503 19.0685C60.8503 28.9315 52.8189 36.8219 43.1813 36.8219C33.8648 36.8219 25.8334 28.9315 25.8334 19.0685C25.8334 9.20547 33.8648 1.31506 43.1813 1.31506Z" fill="#FFB027" stroke="black" stroke-width="0.676372" stroke-linejoin="round"/>
<path d="M30.0097 38.1369C30.0097 38.1369 48 33.2054 56.6739 38.7944" stroke="black" stroke-width="0.676372" stroke-linejoin="round"/>
<path fill-rule="evenodd" clip-rule="evenodd" d="M69.5241 26.9589L75.3067 24.6575C75.3067 24.6575 80.7681 21.3698 80.4468 27.9452C80.1255 34.5205 78.198 43.0684 78.198 43.0684C78.198 43.0684 70.4879 48.6575 65.669 43.0684C60.8502 37.4794 62.4565 32.2191 62.4565 32.2191C62.4565 32.2191 62.7777 28.9315 69.5241 26.9589Z" fill="#E8679D" stroke="black" stroke-width="0.676372" stroke-linejoin="round"/>
<path d="M0.454163 59.178C0.454163 59.178 8.80682 57.5342 8.80682 52.9315C8.80682 48 7.20054 46.3561 4.95175 46.6849C2.70295 47.0137 2.06044 50.6301 3.34547 51.2876C4.95175 51.9452 4.95175 52.2739 7.20054 52.9315C9.44933 53.589 12.3406 53.589 12.3406 53.589" stroke="black" stroke-width="0.676372" stroke-linejoin="round"/>
<path d="M72.4155 51.6165C72.4155 51.6165 73.3792 55.8904 75.9493 55.2329C78.5193 54.5754 78.5193 54.2466 79.1619 51.6165" stroke="black" stroke-width="0.676372" stroke-linejoin="round"/>
<path d="M49.9275 21.6986C49.9275 23.3425 49.285 24.3288 48.3212 25.3151C47.3575 25.9726 46.0724 26.6301 44.4662 26.6301V29.2603H42.5386V26.6301C40.6111 26.6301 38.6835 26.3014 37.0773 25.6438V22.0274C38.041 22.6849 38.6835 23.0137 39.9686 23.0137C40.9323 23.3425 41.8961 23.6712 42.5386 23.6712V19.726L41.8961 19.3973C39.9686 18.7397 39.0048 17.7534 38.041 17.0959C37.3985 16.1096 37.0773 15.1233 37.0773 14.137C37.0773 12.8219 37.7198 11.8356 38.6835 10.8493C39.6473 10.1918 40.9323 9.86302 42.5386 9.53425V7.56165H44.4662V9.53425C46.3937 9.53425 48 9.86302 49.6062 10.5205L48.3212 13.8082C47.0362 13.1507 45.7512 12.8219 44.4662 12.8219V16.4384C46.0724 17.0959 47.0362 17.7534 48 18.0822C48.6425 18.7397 48.9637 19.3973 49.285 19.726C49.6062 20.3836 49.9275 21.0411 49.9275 21.6986ZM46.0724 22.0274C46.0724 21.6986 46.0724 21.3699 45.7512 21.0411C45.4299 20.7123 44.7874 20.7123 44.4662 20.3836V23.6712C45.4299 23.3425 46.0724 22.6849 46.0724 22.0274ZM40.9323 14.137C40.9323 14.4658 41.2536 14.7945 41.2536 15.1233C41.5749 15.4521 41.8961 15.4521 42.5386 15.7808V12.8219C41.5749 12.8219 40.9323 13.4795 40.9323 14.137Z" fill="#DA6A13"/>
</svg>
