<svg width="250" height="80" viewBox="0 0 250 80" fill="none" xmlns="http://www.w3.org/2000/svg">
<path d="M0 10.6667C0 4.77563 4.42406 0 9.88142 0H240.119C245.576 0 250 4.77563 250 10.6667V69.3333C250 75.2244 245.576 80 240.119 80H9.88142C4.42406 80 0 75.2244 0 69.3333V10.6667Z" fill="black"/>
<path fill-rule="evenodd" clip-rule="evenodd" d="M0 69.3333V10.6667C0 4.77563 4.42406 0 9.88142 0H240.118C245.576 0 250 4.77563 250 10.6667V69.3333C250 75.2244 245.576 80 240.118 80H9.88142C4.42406 80 0 75.2244 0 69.3333ZM1.48221 69.3333V10.6667C1.48221 5.65929 5.24266 1.6 9.88142 1.6H240.118C244.757 1.6 248.518 5.65928 248.518 10.6667V69.3333C248.518 74.3407 244.757 78.4 240.118 78.4H9.88142C5.24267 78.4 1.48221 74.3407 1.48221 69.3333Z" fill="white" fill-opacity="0.3"/>
<path d="M56.4937 41.6294C56.4682 36.9407 58.4362 33.4069 62.4104 30.8013C60.1877 27.3638 56.8249 25.4732 52.3921 25.1088C48.195 24.7513 43.6031 27.7488 41.9217 27.7488C40.1448 27.7488 36.0814 25.2325 32.8842 25.2325C26.2861 25.3425 19.2739 30.9113 19.2739 42.2413C19.2739 45.5894 19.8408 49.0476 20.9744 52.6088C22.4902 57.2976 27.9547 68.7857 33.6549 68.6001C36.6355 68.5245 38.7436 66.3176 42.6223 66.3176C46.3863 66.3176 48.3352 68.6001 51.6597 68.6001C57.4108 68.5107 62.3531 58.0676 63.7924 53.3651C56.0797 49.4394 56.4937 41.8701 56.4937 41.6294ZM49.8 20.6607C53.029 16.5219 52.7361 12.7544 52.6405 11.4C49.7873 11.5788 46.4882 13.4969 44.6094 15.855C42.5395 18.385 41.323 21.5132 41.5841 25.04C44.6667 25.2944 47.4817 23.5825 49.8 20.6607Z" fill="white"/>
<path d="M91.2808 57.8923H88.0097L86.2178 51.7863H79.9896L78.2827 57.8923H75.098L81.2687 37.1044H85.0799L91.2808 57.8923ZM85.6777 49.2245L84.0573 43.7963C83.8858 43.2418 83.5646 41.9359 83.0907 39.8802H83.0331C82.8444 40.7644 82.5405 42.0702 82.1228 43.7963L80.5312 49.2245H85.6777Z" fill="white"/>
<path d="M107.15 50.2134C107.15 52.7627 106.514 54.7777 105.244 56.257C104.106 57.5738 102.693 58.2314 101.006 58.2314C99.1856 58.2314 97.8778 57.5223 97.0812 56.1039H97.0236V64.0001H93.9527V47.8375C93.9527 46.2348 93.9138 44.59 93.8389 42.9029H96.5397L96.7111 45.2788H96.7687C97.7928 43.4887 99.347 42.5952 101.433 42.5952C103.063 42.5952 104.424 43.2934 105.513 44.6915C106.605 46.0911 107.15 47.9312 107.15 50.2134ZM104.021 50.3352C104.021 48.8763 103.719 47.6735 103.111 46.7269C102.447 45.7396 101.555 45.246 100.437 45.246C99.6797 45.246 98.9912 45.5209 98.3761 46.063C97.7597 46.6097 97.3563 47.3236 97.1677 48.2077C97.0726 48.6201 97.0251 48.9575 97.0251 49.223V51.7223C97.0251 52.8126 97.3333 53.7327 97.9498 54.484C98.5663 55.2354 99.3671 55.6103 100.352 55.6103C101.509 55.6103 102.409 55.1261 103.053 54.1607C103.698 53.1938 104.021 51.9191 104.021 50.3352Z" fill="white"/>
<path d="M123.048 50.2134C123.048 52.7627 122.412 54.7777 121.141 56.257C120.004 57.5738 118.591 58.2314 116.904 58.2314C115.084 58.2314 113.776 57.5223 112.981 56.1039H112.923V64.0001H109.852V47.8375C109.852 46.2348 109.813 44.59 109.738 42.9029H112.439L112.611 45.2788H112.668C113.691 43.4887 115.245 42.5952 117.332 42.5952C118.961 42.5952 120.322 43.2934 121.414 44.6915C122.502 46.0911 123.048 47.9312 123.048 50.2134ZM119.919 50.3352C119.919 48.8763 119.615 47.6735 119.007 46.7269C118.343 45.7396 117.455 45.246 116.335 45.246C115.576 45.246 114.889 45.5209 114.273 46.063C113.656 46.6097 113.254 47.3236 113.066 48.2077C112.972 48.6201 112.923 48.9575 112.923 49.223V51.7223C112.923 52.8126 113.231 53.7327 113.845 54.484C114.462 55.2338 115.262 55.6103 116.25 55.6103C117.407 55.6103 118.307 55.1261 118.951 54.1607C119.597 53.1938 119.919 51.9191 119.919 50.3352Z" fill="white"/>
<path d="M140.822 52.063C140.822 53.8313 140.256 55.2699 139.12 56.3805C137.871 57.5943 136.132 58.2003 133.898 58.2003C131.836 58.2003 130.182 57.7692 128.931 56.9054L129.642 54.1296C130.99 55.0137 132.47 55.4574 134.081 55.4574C135.238 55.4574 136.138 55.1731 136.785 54.6076C137.429 54.0421 137.75 53.283 137.75 52.3364C137.75 51.4929 137.485 50.7821 136.953 50.2057C136.425 49.6293 135.542 49.0935 134.309 48.5984C130.953 47.2409 129.276 45.2524 129.276 42.6375C129.276 40.9286 129.864 39.5275 131.041 38.4371C132.213 37.3453 133.777 36.8001 135.733 36.8001C137.478 36.8001 138.927 37.1297 140.083 37.7873L139.316 40.5022C138.235 39.8649 137.014 39.5462 135.647 39.5462C134.567 39.5462 133.723 39.8352 133.118 40.41C132.606 40.924 132.35 41.5503 132.35 42.2923C132.35 43.114 132.642 43.7935 133.23 44.3277C133.741 44.8213 134.67 45.3555 136.019 45.9319C137.668 46.652 138.879 47.494 139.659 48.4593C140.435 49.4216 140.822 50.6259 140.822 52.063Z" fill="white"/>
<path d="M150.975 45.4025H147.59V52.6802C147.59 54.5312 148.187 55.456 149.382 55.456C149.931 55.456 150.386 55.4044 150.746 55.3013L150.831 57.8303C150.226 58.0755 149.43 58.1989 148.443 58.1989C147.23 58.1989 146.282 57.7975 145.598 56.9961C144.917 56.1932 144.574 54.8468 144.574 52.9551V45.3994H142.558V42.9001H144.574V40.1556L147.59 39.1684V42.9001H150.975V45.4025Z" fill="white"/>
<path d="M166.248 50.2743C166.248 52.5783 165.64 54.47 164.427 55.9493C163.155 57.4723 161.467 58.2314 159.363 58.2314C157.335 58.2314 155.72 57.502 154.516 56.043C153.312 54.584 152.71 52.7424 152.71 50.5227C152.71 48.1999 153.329 46.2973 154.572 44.818C155.812 43.3372 157.486 42.5968 159.59 42.5968C161.618 42.5968 163.25 43.3263 164.482 44.7868C165.66 46.2036 166.248 48.0327 166.248 50.2743ZM163.062 50.3821C163.062 48.9997 162.789 47.8141 162.238 46.8253C161.594 45.6287 160.674 45.032 159.481 45.032C158.246 45.032 157.309 45.6303 156.665 46.8253C156.113 47.8156 155.841 49.02 155.841 50.4446C155.841 51.827 156.113 53.0126 156.665 53.9998C157.329 55.1964 158.257 55.7931 159.453 55.7931C160.626 55.7931 161.546 55.1839 162.21 53.9686C162.776 52.961 163.062 51.7629 163.062 50.3821Z" fill="white"/>
<path d="M176.23 45.8318C175.926 45.7709 175.602 45.7396 175.262 45.7396C174.181 45.7396 173.346 46.1817 172.758 47.0674C172.247 47.8484 171.99 48.8356 171.99 50.0275V57.8925H168.921L168.95 47.6235C168.95 45.8958 168.911 44.3228 168.835 42.9045H171.509L171.622 45.7724H171.707C172.031 44.7868 172.542 43.9932 173.242 43.3981C173.926 42.8623 174.665 42.5952 175.462 42.5952C175.746 42.5952 176.002 42.6171 176.23 42.6561V45.8318Z" fill="white"/>
<path d="M189.963 49.6886C189.963 50.2853 189.927 50.7883 189.851 51.1991H180.638C180.674 52.68 181.119 53.8125 181.974 54.5935C182.751 55.2917 183.755 55.6416 184.988 55.6416C186.352 55.6416 187.596 55.4058 188.715 54.9325L189.197 57.2443C187.889 57.8629 186.345 58.1706 184.563 58.1706C182.42 58.1706 180.737 57.4864 179.513 56.1196C178.291 54.7528 177.679 52.9174 177.679 50.6149C177.679 48.3546 178.248 46.4723 179.388 44.9712C180.58 43.3685 182.192 42.5672 184.22 42.5672C186.212 42.5672 187.72 43.3685 188.744 44.9712C189.555 46.2443 189.963 47.8188 189.963 49.6886ZM187.035 48.8248C187.055 47.8376 186.855 46.9847 186.438 46.2646C185.907 45.3383 185.09 44.8759 183.991 44.8759C182.987 44.8759 182.17 45.3274 181.547 46.2333C181.035 46.9535 180.731 47.8173 180.638 48.8232H187.035V48.8248Z" fill="white"/>
<path d="M85.0538 23.1252C85.0538 25.3722 84.4324 27.0637 83.1913 28.1996C82.0417 29.2477 80.4081 29.7727 78.2921 29.7727C77.2429 29.7727 76.3451 29.7231 75.5934 29.6238V17.3464C76.5739 17.1746 77.6302 17.0868 78.7709 17.0868C80.7866 17.0868 82.3058 17.5621 83.3304 18.5129C84.4781 19.5877 85.0538 21.1245 85.0538 23.1252ZM83.1086 23.1806C83.1086 21.724 82.753 20.6071 82.0417 19.8282C81.3305 19.0512 80.2919 18.6618 78.9241 18.6618C78.3431 18.6618 77.8485 18.7038 77.4383 18.7916V28.1252C77.6654 28.1633 78.0808 28.1805 78.6847 28.1805C80.0965 28.1805 81.1862 27.7548 81.9537 26.9033C82.7213 26.0519 83.1086 24.811 83.1086 23.1806Z" fill="white"/>
<path d="M95.3681 25.0881C95.3681 26.4722 95.0037 27.6062 94.2749 28.4959C93.5109 29.4103 92.4987 29.8666 91.2347 29.8666C90.0165 29.8666 89.0465 29.4294 88.323 28.5512C87.6012 27.6749 87.2403 26.5696 87.2403 25.237C87.2403 23.8434 87.6118 22.6998 88.3582 21.8121C89.1046 20.9244 90.108 20.4796 91.372 20.4796C92.5902 20.4796 93.569 20.9167 94.3101 21.793C95.0143 22.6445 95.3681 23.7441 95.3681 25.0881ZM93.4546 25.153C93.4546 24.3226 93.2891 23.6105 92.9599 23.0167C92.5726 22.2989 92.0216 21.94 91.3051 21.94C90.564 21.94 90.0007 22.2989 89.6134 23.0167C89.2824 23.6105 89.1187 24.334 89.1187 25.1893C89.1187 26.0198 89.2842 26.7318 89.6134 27.3256C90.013 28.0434 90.5693 28.4023 91.2875 28.4023C91.9917 28.4023 92.5444 28.0377 92.9423 27.3065C93.2838 26.7013 93.4546 25.9835 93.4546 25.153Z" fill="white"/>
<path d="M109.198 20.6627L106.602 29.6622H104.912L103.836 25.7543C103.563 24.7787 103.341 23.8089 103.169 22.8467H103.136C102.975 23.8356 102.754 24.8036 102.468 25.7543L101.326 29.6622H99.6165L97.1748 20.6627H99.0707L100.009 24.941C100.236 25.9528 100.423 26.9169 100.572 27.8295H100.606C100.743 27.0773 100.97 26.1189 101.291 24.9601L102.468 20.6646H103.972L105.1 24.8685C105.373 25.8936 105.595 26.8807 105.766 27.8314H105.817C105.942 26.9055 106.13 25.9185 106.38 24.8685L107.387 20.6646H109.198V20.6627Z" fill="white"/>
<path d="M118.762 29.6623H116.917V24.5077C116.917 22.9193 116.361 22.1251 115.245 22.1251C114.697 22.1251 114.255 22.3428 113.912 22.78C113.572 23.2172 113.4 23.7326 113.4 24.3225V29.6604H111.555V23.2343C111.555 22.444 111.532 21.5868 111.488 20.659H113.109L113.196 22.066H113.247C113.461 21.6288 113.782 21.268 114.203 20.9797C114.702 20.6437 115.262 20.4738 115.875 20.4738C116.649 20.4738 117.294 20.7449 117.806 21.289C118.443 21.9552 118.762 22.9499 118.762 24.271V29.6623Z" fill="white"/>
<path d="M123.849 29.6622H122.006V16.5333H123.849V29.6622Z" fill="white"/>
<path d="M134.711 25.0881C134.711 26.4722 134.347 27.6062 133.618 28.4959C132.854 29.4103 131.84 29.8666 130.577 29.8666C129.358 29.8666 128.388 29.4294 127.666 28.5512C126.944 27.6749 126.583 26.5696 126.583 25.237C126.583 23.8434 126.955 22.6998 127.701 21.8121C128.447 20.9244 129.451 20.4796 130.713 20.4796C131.933 20.4796 132.91 20.9167 133.653 21.793C134.357 22.6445 134.711 23.7441 134.711 25.0881ZM132.796 25.153C132.796 24.3226 132.63 23.6105 132.301 23.0167C131.915 22.2989 131.363 21.94 130.648 21.94C129.905 21.94 129.342 22.2989 128.956 23.0167C128.625 23.6105 128.461 24.334 128.461 25.1893C128.461 26.0198 128.627 26.7318 128.956 27.3256C129.356 28.0434 129.912 28.4023 130.63 28.4023C131.334 28.4023 131.885 28.0377 132.283 27.3065C132.627 26.7013 132.796 25.9835 132.796 25.153Z" fill="white"/>
<path d="M143.64 29.6623H141.983L141.846 28.6257H141.795C141.228 29.4523 140.42 29.8666 139.371 29.8666C138.587 29.8666 137.954 29.5936 137.477 29.0514C137.044 28.5589 136.827 27.946 136.827 27.2187C136.827 26.119 137.25 25.2809 138.1 24.7006C138.948 24.1202 140.142 23.8357 141.679 23.8491V23.6811C141.679 22.4956 141.105 21.9037 139.955 21.9037C139.137 21.9037 138.415 22.1271 137.792 22.57L137.417 21.2566C138.188 20.7392 139.14 20.4796 140.263 20.4796C142.432 20.4796 143.52 21.7205 143.52 24.2023V27.5165C143.52 28.4157 143.561 29.1316 143.64 29.6623ZM141.724 26.5696V25.1817C139.689 25.1435 138.672 25.7487 138.672 26.9953C138.672 27.4649 138.788 27.8162 139.026 28.051C139.263 28.2859 139.566 28.4023 139.927 28.4023C140.332 28.4023 140.71 28.2629 141.056 27.9861C141.402 27.7074 141.615 27.3542 141.695 26.9208C141.714 26.8235 141.724 26.7051 141.724 26.5696Z" fill="white"/>
<path d="M154.123 29.6622H152.486L152.399 28.217H152.348C151.825 29.3166 150.935 29.8664 149.683 29.8664C148.683 29.8664 147.85 29.4407 147.19 28.5892C146.53 27.7378 146.201 26.6324 146.201 25.2751C146.201 23.8184 146.558 22.6386 147.277 21.7375C147.972 20.8975 148.824 20.4775 149.838 20.4775C150.952 20.4775 151.732 20.8841 152.176 21.6993H152.211V16.5333H154.058V27.2376C154.058 28.1139 154.079 28.9214 154.123 29.6622ZM152.211 25.8669V24.3663C152.211 24.1067 152.193 23.8967 152.16 23.7363C152.056 23.2552 151.832 22.8505 151.493 22.524C151.149 22.1976 150.736 22.0334 150.259 22.0334C149.57 22.0334 149.032 22.3293 148.636 22.923C148.243 23.5168 148.044 24.2747 148.044 25.2006C148.044 26.0902 148.232 26.8119 148.611 27.3674C149.011 27.9592 149.549 28.2552 150.223 28.2552C150.829 28.2552 151.313 28.0089 151.681 27.5144C152.037 27.0581 152.211 26.5083 152.211 25.8669Z" fill="white"/>
<path d="M169.902 25.0881C169.902 26.4722 169.538 27.6062 168.809 28.4959C168.045 29.4103 167.034 29.8666 165.769 29.8666C164.552 29.8666 163.582 29.4294 162.857 28.5512C162.135 27.6749 161.774 26.5696 161.774 25.237C161.774 23.8434 162.146 22.6998 162.892 21.8121C163.639 20.9244 164.642 20.4796 165.908 20.4796C167.124 20.4796 168.105 20.9167 168.844 21.793C169.548 22.6445 169.902 23.7441 169.902 25.0881ZM167.99 25.153C167.99 24.3226 167.825 23.6105 167.496 23.0167C167.107 22.2989 166.557 21.94 165.839 21.94C165.1 21.94 164.536 22.2989 164.147 23.0167C163.816 23.6105 163.653 24.334 163.653 25.1893C163.653 26.0198 163.818 26.7318 164.147 27.3256C164.547 28.0434 165.103 28.4023 165.821 28.4023C166.526 28.4023 167.08 28.0377 167.478 27.3065C167.818 26.7013 167.99 25.9835 167.99 25.153Z" fill="white"/>
<path d="M179.821 29.6623H177.978V24.5077C177.978 22.9193 177.422 22.1251 176.304 22.1251C175.757 22.1251 175.315 22.3428 174.973 22.78C174.632 23.2172 174.461 23.7326 174.461 24.3225V29.6604H172.614V23.2343C172.614 22.444 172.593 21.5868 172.549 20.659H174.169L174.255 22.066H174.306C174.523 21.6288 174.843 21.268 175.262 20.9797C175.764 20.6437 176.322 20.4738 176.936 20.4738C177.709 20.4738 178.353 20.7449 178.865 21.289C179.504 21.9552 179.821 22.9499 179.821 24.271V29.6623Z" fill="white"/>
<path d="M192.237 22.1614H190.206V26.5333C190.206 27.6444 190.566 28.1999 191.281 28.1999C191.612 28.1999 191.887 28.1694 192.103 28.1064L192.151 29.6241C191.786 29.773 191.308 29.8475 190.718 29.8475C189.989 29.8475 189.422 29.6069 189.012 29.1258C188.6 28.6447 188.396 27.8353 188.396 26.6994V22.1614H187.183V20.6628H188.396V19.0133L190.204 18.4215V20.6609H192.235V22.1614H192.237Z" fill="white"/>
<path d="M202.004 29.6622H200.158V24.5458C200.158 22.9326 199.601 22.125 198.487 22.125C197.631 22.125 197.047 22.5928 196.727 23.5282C196.672 23.7249 196.64 23.9654 196.64 24.248V29.6602H194.797V16.5333H196.64V21.957H196.676C197.257 20.97 198.089 20.4775 199.168 20.4775C199.932 20.4775 200.564 20.7486 201.066 21.2927C201.691 21.9704 202.004 22.9784 202.004 24.311V29.6622Z" fill="white"/>
<path d="M212.08 24.7367C212.08 25.0956 212.055 25.3972 212.011 25.6435H206.478C206.503 26.5332 206.767 27.2109 207.279 27.6805C207.748 28.1005 208.351 28.3105 209.091 28.3105C209.909 28.3105 210.656 28.1692 211.328 27.8848L211.617 29.2746C210.83 29.645 209.904 29.8302 208.832 29.8302C207.547 29.8302 206.535 29.4197 205.802 28.5988C205.067 27.7779 204.702 26.6763 204.702 25.2941C204.702 23.9368 205.042 22.8066 205.727 21.9055C206.441 20.9433 207.408 20.4622 208.628 20.4622C209.821 20.4622 210.728 20.9433 211.341 21.9055C211.835 22.6691 212.08 23.6141 212.08 24.7367ZM210.32 24.2193C210.334 23.6256 210.212 23.114 209.962 22.6825C209.642 22.127 209.154 21.8482 208.494 21.8482C207.892 21.8482 207.401 22.1193 207.026 22.6634C206.72 23.0968 206.538 23.6141 206.478 24.2193H210.32Z" fill="white"/>
</svg>
