<svg width="96" height="96" viewBox="0 0 96 96" fill="none" xmlns="http://www.w3.org/2000/svg">
<path fill-rule="evenodd" clip-rule="evenodd" d="M1.44629 32.6512H81.5367C81.5367 36.582 81.5367 40.5128 81.5367 44.4436C78.1017 44.4436 75.209 44.2565 72.1356 45.0052L67.2542 46.3155L62.5536 48.1873L62.3728 72.708H1.44629V32.6512Z" fill="#A0D468" stroke="black" stroke-width="0.846045" stroke-linejoin="round"/>
<path d="M27.8418 39.7642H15.1865L7.95483 46.877V58.4823L14.4633 66.3439H27.8418" stroke="black" stroke-width="0.846045" stroke-linejoin="round"/>
<path d="M51.3446 39.3898H66.531" stroke="black" stroke-width="0.846045" stroke-linejoin="round"/>
<path fill-rule="evenodd" clip-rule="evenodd" d="M40.1355 39.5769C47.1863 39.5769 52.9716 45.5667 52.9716 52.8668C52.9716 60.354 47.1863 66.3438 40.1355 66.3438C32.9038 66.3438 27.1185 60.354 27.1185 52.8668C27.1185 45.5667 32.9038 39.5769 40.1355 39.5769Z" stroke="black" stroke-width="0.846045" stroke-linejoin="round"/>
<path fill-rule="evenodd" clip-rule="evenodd" d="M76.6554 32.6513H2.71191L8.13564 11.3126L78.6441 27.7846L76.6554 32.6513Z" fill="#87B749" stroke="black" stroke-width="0.846045" stroke-linejoin="round"/>
<path fill-rule="evenodd" clip-rule="evenodd" d="M71.4123 26.0999L18.8021 13.746L25.6722 1.57922L74.8473 22.1691L71.4123 26.0999Z" fill="#7CA931" stroke="black" stroke-width="0.846045" stroke-linejoin="round"/>
<path d="M43.9321 54.9258C43.9321 55.6745 43.5705 56.4233 43.0282 56.9848C42.4858 57.5463 41.7626 57.9207 40.6779 58.1079V59.7925H39.0508V58.2951C38.3276 58.1079 37.6044 58.1079 37.0621 57.9207C36.3389 57.7335 35.7965 57.3592 35.4349 57.172L36.3389 54.9258C36.7005 55.3002 37.2428 55.4873 37.7852 55.6745C38.5084 55.8617 39.0508 56.0489 39.5931 56.0489C40.6779 56.0489 41.2202 55.6745 41.2202 55.113C41.2202 54.9258 41.0395 54.7386 40.6779 54.5514C40.4971 54.3643 39.9547 54.1771 39.2315 53.9899C38.5084 53.9899 37.966 53.8027 37.4236 53.6155C36.8813 53.4284 36.5197 53.054 36.1581 52.6796C35.7965 52.3053 35.6157 51.7437 35.6157 50.995C35.6157 50.0591 35.7965 49.3104 36.5197 48.7488C37.0621 48.1873 37.966 47.8129 39.0508 47.6257V46.1283H40.6779V47.6257C41.2202 47.8129 41.7626 47.8129 42.1242 48.0001C42.6666 48.1873 43.2089 48.3745 43.5705 48.5616L42.6666 50.6206C41.7626 50.0591 40.8587 49.8719 39.9547 49.8719C39.4123 49.8719 39.0508 50.0591 38.6892 50.0591C38.5084 50.2463 38.3276 50.6206 38.3276 50.8078C38.3276 50.995 38.5084 51.3694 38.87 51.3694C39.0508 51.5565 39.5931 51.7437 40.3163 51.7437C41.0395 51.9309 41.5818 52.1181 42.1242 52.3053C42.6666 52.4925 43.0282 52.8668 43.3897 53.2412C43.7513 53.6155 43.9321 54.1771 43.9321 54.9258Z" fill="black"/>
<path fill-rule="evenodd" clip-rule="evenodd" d="M62.5536 50.4335H94.3728V89.3671H62.5536V50.4335Z" fill="#CAA24A"/>
<path fill-rule="evenodd" clip-rule="evenodd" d="M62.192 90.1159C62.192 90.1159 75.5705 100.224 94.3728 90.1159V83.9389C94.3728 83.9389 77.0169 92.7364 62.192 83.9389V77.3876C62.192 77.3876 76.1129 86.3723 94.5536 77.2004V71.0234C94.5536 71.0234 79.5479 78.5107 62.192 71.0234V64.2849C62.192 64.2849 75.7513 72.7081 94.3728 64.2849V57.7336C94.3728 57.7336 77.5592 65.5952 62.192 57.7336V50.0592C62.192 50.0592 75.7513 61.29 94.3728 50.0592V48.1873C94.3728 48.1873 79.7287 39.3898 62.5536 48.1873L62.192 90.1159Z" fill="#FFD62D" stroke="black" stroke-width="0.846045" stroke-linejoin="round"/>
<path d="M94.3728 50.0592V90.1159" stroke="black" stroke-width="0.846045" stroke-linejoin="round"/>
</svg>
