<svg width="250" height="80" viewBox="0 0 250 80" fill="none" xmlns="http://www.w3.org/2000/svg">
<path d="M0 10.6667C0 4.77563 4.42406 0 9.88142 0H240.119C245.576 0 250 4.77563 250 10.6667V69.3333C250 75.2244 245.576 80 240.119 80H9.88142C4.42406 80 0 75.2244 0 69.3333V10.6667Z" fill="black"/>
<path d="M52.7133 48.5772C58.6327 45.0362 63.1206 42.3384 63.5073 42.1289C64.7443 41.4117 66.0224 39.5145 63.5073 38.041C62.6953 37.5777 58.323 34.9634 52.7133 31.5927L44.9373 40.1477L52.7129 48.5772H52.7133Z" fill="#FFD900"/>
<path d="M44.9373 40.1477L20.1763 67.3334C20.7571 67.4174 21.4133 67.2494 22.1872 66.7861C23.8114 65.8179 41.0285 55.5748 52.7138 48.5791L44.9373 40.1477Z" fill="#F43249"/>
<path d="M44.9374 40.1478L52.7131 31.6342C52.7131 31.6342 23.9289 14.5218 22.187 13.5121C21.5316 13.0875 20.7962 12.962 20.1383 13.0875L44.9374 40.1473V40.1478Z" fill="#00EE76"/>
<path d="M44.9374 40.1479L20.1378 13.0881C19.1313 13.3415 18.2806 14.3102 18.2806 16.2904V64.13C18.2806 65.9436 18.939 67.2496 20.1759 67.3752L44.937 40.1474L44.9374 40.1479Z" fill="#00D3FF"/>
<path d="M126.672 43.461C122.223 43.461 118.548 47.2115 118.548 52.3539C118.548 57.4542 122.185 61.2467 126.673 61.2467C131.16 61.2467 134.797 57.4962 134.797 52.3539C134.797 47.2115 131.16 43.461 126.672 43.461ZM126.672 57.708C124.234 57.708 122.108 55.4735 122.108 52.3142C122.108 49.111 124.236 46.9203 126.672 46.9203C129.109 46.9203 131.237 49.111 131.237 52.3142C131.237 55.4735 129.109 57.708 126.672 57.708ZM108.991 43.461C104.503 43.461 100.866 47.2115 100.866 52.3539C100.866 57.4542 104.503 61.2467 108.991 61.2467C113.479 61.2467 117.116 57.4962 117.116 52.3539C117.116 47.2115 113.479 43.461 108.991 43.461H108.991ZM108.991 57.708C106.553 57.708 104.427 55.4735 104.427 52.3142C104.427 49.111 106.555 46.9203 108.991 46.9203C111.429 46.9203 113.556 49.111 113.556 52.3142C113.556 55.4735 111.466 57.708 108.991 57.708ZM87.9829 46.2008V49.9514H96.1843C95.9513 52.0585 95.2955 53.6179 94.3275 54.6724C93.1287 55.9784 91.2715 57.4122 87.9829 57.4122C82.9137 57.4122 79.0075 52.945 79.0075 47.4233C79.0075 41.9016 82.9159 37.35 87.9829 37.35C90.7288 37.35 92.7034 38.5305 94.1733 40.0483L96.6096 37.392C94.5584 35.2433 91.8125 33.5999 87.9829 33.5999C81.0566 33.5999 75.2529 39.7945 75.2529 47.3393C75.2529 54.8847 81.0566 61.0792 87.9829 61.0792C91.7354 61.0792 94.522 59.7312 96.7655 57.2009C99.048 54.7144 99.7445 51.2154 99.7445 48.392C99.7445 47.5073 99.6678 46.7062 99.5504 46.0315L87.9829 46.2008ZM173.951 49.1087C173.293 47.1275 171.204 43.461 167.025 43.461C162.845 43.461 159.402 47.044 159.402 52.3539C159.402 57.3264 162.845 61.2467 167.412 61.2467C171.126 61.2467 173.254 58.7602 174.143 57.3264L171.397 55.3037C170.468 56.7795 169.23 57.7477 167.412 57.7477C165.593 57.7477 164.317 56.863 163.503 55.0499L174.297 50.1193L173.951 49.1087ZM162.962 52.1023C162.886 48.6873 165.401 46.918 167.179 46.918C168.611 46.918 169.771 47.6767 170.196 48.8152L162.962 52.1023ZM154.18 60.6574H157.74V34.6101H154.18V60.6574ZM148.378 45.4422H148.262C147.45 44.3877 145.941 43.461 144.005 43.461C139.943 43.461 136.268 47.3813 136.268 52.3539C136.268 57.3264 139.981 61.2052 144.005 61.2052C145.939 61.2052 147.448 60.278 148.262 59.1816H148.378V60.446C148.378 63.861 146.713 65.6719 144.044 65.6719C141.877 65.6719 140.522 63.9446 139.981 62.5107L136.887 63.9446C137.776 66.3051 140.137 69.2129 144.044 69.2129C148.222 69.2129 151.743 66.515 151.743 59.9827V44.0083H148.378V45.4422ZM144.315 57.708C141.877 57.708 139.828 55.4735 139.828 52.3562C139.828 49.2388 141.879 46.9618 144.315 46.9618C146.715 46.9618 148.649 49.2388 148.649 52.3562C148.647 55.4315 146.713 57.708 144.315 57.708ZM190.549 34.6106H182.037V60.6574H185.597V50.794H190.549C194.495 50.794 198.364 47.6744 198.364 42.7023C198.364 37.7298 194.495 34.6101 190.549 34.6101V34.6106ZM190.664 47.1718H185.634V38.2347H190.664C193.295 38.2347 194.842 40.6372 194.842 42.7019C194.805 44.725 193.297 47.1718 190.664 47.1718ZM212.564 43.419C210.01 43.419 207.34 44.6415 206.257 47.4233L209.392 48.8572C210.089 47.4233 211.326 46.96 212.642 46.96C214.5 46.96 216.356 48.182 216.395 50.3307V50.5845C215.737 50.1632 214.384 49.572 212.681 49.572C209.277 49.572 205.832 51.6372 205.832 55.4315C205.832 58.93 208.618 61.1632 211.713 61.1632C214.112 61.1632 215.427 59.9827 216.239 58.5927H216.355V60.6159H219.797V50.626C219.759 46.0329 216.626 43.4185 212.564 43.4185V43.419ZM212.138 57.666C210.978 57.666 209.352 57.0329 209.352 55.4754C209.352 53.4522 211.363 52.6935 213.104 52.6935C214.651 52.6935 215.387 53.0729 216.355 53.5782C216.084 55.9807 214.188 57.666 212.138 57.666ZM232.217 44.0106L228.155 55.2635H228.039L223.823 44.0102H219.994L226.338 59.7727L222.739 68.582H226.453L236.163 44.0102H232.217L232.217 44.0106ZM200.338 60.6574H203.898V34.6101H200.338V60.6574Z" fill="white"/>
<path d="M82.249 26.4063C81.1739 26.4063 80.1831 26.1276 79.2767 25.5701C78.3702 25.0125 77.6482 24.2502 77.1106 23.2831C76.5836 22.3046 76.3201 21.2181 76.3201 20.0234C76.3201 18.8287 76.5836 17.7478 77.1106 16.7807C77.6482 15.8022 78.3702 15.0342 79.2767 14.4767C80.1831 13.9192 81.1739 13.6404 82.249 13.6404C83.1027 13.6404 83.8985 13.8054 84.6363 14.1354C85.3742 14.4653 85.9908 14.9261 86.4861 15.5178L85.2529 16.849C84.884 16.4052 84.4413 16.0639 83.9249 15.825C83.4189 15.586 82.855 15.4666 82.2332 15.4666C81.5059 15.4666 80.8261 15.6543 80.1936 16.0298C79.5612 16.4052 79.0553 16.94 78.6759 17.634C78.2964 18.3281 78.1067 19.1245 78.1067 20.0234C78.1067 20.9222 78.2964 21.7187 78.6759 22.4127C79.0553 23.1068 79.5612 23.6415 80.1936 24.017C80.8261 24.3925 81.5112 24.5802 82.249 24.5802C82.9236 24.5802 83.4875 24.4721 83.9407 24.2559C84.3939 24.0397 84.7997 23.7496 85.1581 23.3855C85.39 23.1352 85.585 22.8223 85.7431 22.4469C85.9117 22.0714 86.0224 21.6618 86.0751 21.2181H82.2332V19.5114H87.751C87.8037 19.83 87.83 20.1599 87.83 20.5013C87.83 21.2749 87.7193 22.0202 87.498 22.737C87.2767 23.4424 86.9236 24.0568 86.4387 24.5802C85.3742 25.7976 83.9776 26.4063 82.249 26.4063Z" fill="white"/>
<path d="M89.4789 13.9135H96.3563V15.7396H91.2496V19.1188H95.8504V20.9279H91.2496V24.3071H96.3563V26.1333H89.4789V13.9135Z" fill="white"/>
<path d="M100.455 15.7396H97.2926V13.9135H105.387V15.7396H102.225V26.1333H100.455V15.7396Z" fill="white"/>
<path d="M110.017 13.9135H111.788V26.1333H110.017V13.9135Z" fill="white"/>
<path d="M116.268 15.7396H113.106V13.9135H121.201V15.7396H118.039V26.1333H116.268V15.7396Z" fill="white"/>
<path d="M130.818 26.4063C129.722 26.4063 128.726 26.1276 127.83 25.5701C126.934 25.0012 126.228 24.2275 125.711 23.249C125.205 22.2705 124.952 21.1953 124.952 20.0234C124.952 18.8515 125.205 17.782 125.711 16.8148C126.228 15.8364 126.934 15.0627 127.83 14.4938C128.726 13.9249 129.722 13.6404 130.818 13.6404C131.914 13.6404 132.905 13.9249 133.79 14.4938C134.686 15.0627 135.392 15.8364 135.909 16.8148C136.425 17.782 136.683 18.8515 136.683 20.0234C136.683 21.1953 136.425 22.2705 135.909 23.249C135.403 24.2275 134.702 25.0012 133.806 25.5701C132.91 26.1276 131.914 26.4063 130.818 26.4063ZM130.818 24.5802C131.566 24.5802 132.251 24.3868 132.873 23.9999C133.495 23.6131 133.985 23.0783 134.343 22.3957C134.702 21.7016 134.881 20.9109 134.881 20.0234C134.881 19.1359 134.702 18.3508 134.343 17.6682C133.985 16.9741 133.495 16.4337 132.873 16.0468C132.251 15.66 131.566 15.4666 130.818 15.4666C130.069 15.4666 129.384 15.66 128.762 16.0468C128.141 16.4337 127.645 16.9741 127.276 17.6682C126.918 18.3508 126.739 19.1359 126.739 20.0234C126.739 20.9109 126.918 21.7016 127.276 22.3957C127.645 23.0783 128.141 23.6131 128.762 23.9999C129.384 24.3868 130.069 24.5802 130.818 24.5802Z" fill="white"/>
<path d="M138.312 13.9135H140.414L145.474 22.8053H145.569L145.474 20.4501V13.9135H147.229V26.1333H145.379L140.067 16.7807H139.972L140.067 19.1359V26.1333H138.312V13.9135Z" fill="white"/>
</svg>
