<svg width="416" height="80" viewBox="0 0 416 80" fill="none" xmlns="http://www.w3.org/2000/svg">
<path d="M11.7736 39.4217V60.7551H28.4528H45.132V52.5773C45.132 45.1106 44.9358 44.5773 40.8151 45.8217C38.2641 46.3551 34.9283 48.1329 33.1622 49.3773C31.3962 50.7995 28.4528 51.5107 26.6868 50.7995C24.1358 49.9106 23.5471 46.8884 23.5471 33.9106V18.0883H17.6604H11.7736V39.4217Z" fill="#108CFF"/>
<path d="M55.3358 38.8915C55.9245 59.1582 56.1207 59.8693 60.4377 60.4026C64.7546 60.9359 64.7546 60.7582 64.7546 39.6026V18.0915H59.849H54.7471L55.3358 38.8915Z" fill="#108CFF"/>
<path d="M76.1358 20.044C73.1924 21.644 72.6037 24.6662 72.6037 41.1996V60.7551H78.2943C83.7886 60.7551 84.1811 60.2218 84.7697 53.2885C85.3584 46.5329 85.9471 45.644 91.8339 44.044C96.7395 42.7996 98.1131 41.5551 98.1131 37.9996C98.1131 34.0885 97.5244 33.7329 91.2452 34.7996C85.1622 35.8662 84.3773 35.5107 84.3773 32.3107C84.3773 29.1107 85.5546 28.7551 95.1697 28.7551C105.177 28.7551 105.962 28.3996 105.962 24.4885C105.962 22.1774 104.589 19.6885 102.823 19.1551C97.9169 17.3774 79.8641 18.0885 76.1358 20.044Z" fill="#108CFF"/>
<path d="M115.774 21.6462C114.596 23.7795 113.811 32.4906 114.204 42.624L114.792 59.8684L131.079 60.4017C147.17 60.9351 147.17 60.9351 147.17 56.4906C147.17 52.4017 146.385 52.0462 136.966 51.5129C124.8 50.8017 122.641 46.7129 133.041 44.0462C137.947 42.8017 139.321 41.5573 139.321 38.0017C139.321 34.0906 138.732 33.7351 132.453 34.8017C126.37 35.8684 125.585 35.5129 125.585 32.3129C125.585 29.1129 126.762 28.7573 136.377 28.7573C146.385 28.7573 147.17 28.4017 147.17 24.4906C147.17 19.1573 144.03 18.0906 129.509 18.0906C119.894 18.0906 117.54 18.624 115.774 21.6462Z" fill="#108CFF"/>
<path d="M155.019 25.1996C155.019 31.9551 155.411 32.3107 160.906 32.3107H166.792V46.5329C166.792 60.5773 166.792 60.7551 171.698 60.7551C176.604 60.7551 176.604 60.5773 176.604 46.3551V32.1329L183.472 29.4662C188.77 27.5107 190.34 25.9107 190.34 22.5329C190.34 18.0885 190.143 18.0885 172.679 18.0885H155.019V25.1996Z" fill="#108CFF"/>
<path d="M201.721 20.044C198.777 21.644 198.189 24.6662 198.189 41.1996V60.7551H203.879C209.177 60.7551 209.766 60.2218 210.355 54.1773C210.943 48.3107 211.728 47.4218 216.438 46.8885C221.54 46.3551 221.736 46.7107 221.736 53.4662C221.736 60.044 222.325 60.7551 226.445 60.7551H231.351L231.155 40.844C231.155 27.5107 230.37 20.3996 228.996 19.5107C225.464 17.5551 205.645 17.9107 201.721 20.044ZM221.736 31.4218C221.736 33.0218 219.381 34.9774 216.634 35.8662C209.962 38.1774 209.962 38.1774 209.962 33.1996C209.962 29.4662 210.943 28.7551 215.849 28.7551C219.774 28.7551 221.736 29.644 221.736 31.4218Z" fill="#108CFF"/>
<path d="M241.751 20.2218C240.181 21.644 239.396 28.9329 239.396 41.5551V60.7551H245.087C250.385 60.7551 250.973 60.2218 251.562 54.1774C252.151 48.3107 252.936 47.4218 257.645 46.8885C262.747 46.3551 262.943 46.7107 262.943 53.4662C262.943 60.044 263.336 60.7551 267.849 60.7551H272.755V41.5551C272.755 28.9329 271.97 21.644 270.4 20.2218C269.026 18.9774 262.747 18.0885 256.075 18.0885C249.404 18.0885 243.124 18.9774 241.751 20.2218ZM262.943 31.4218C262.943 33.0218 260.589 34.9774 257.841 35.8662C251.17 38.1774 251.17 38.1774 251.17 33.1996C251.17 29.4662 252.151 28.7551 257.057 28.7551C260.981 28.7551 262.943 29.644 262.943 31.4218Z" fill="#108CFF"/>
<path d="M284.528 19.8666C282.173 21.1111 282.173 23.0666 284.136 31.9555C285.509 37.6444 287.864 46.5333 289.63 51.6889L292.573 60.9333L300.815 60.4C308.86 59.8667 309.057 59.5111 311.411 51.8667C312.785 47.4222 315.14 39.2444 316.906 33.5555C319.26 25.5555 319.457 22.5333 317.691 20.5777C312.196 14.5333 309.842 17.5555 304.936 36.7555C304.151 39.6 302.581 43.1555 301.404 44.5778C299.834 46.5333 299.049 46 297.872 41.9111C291.592 18.9777 290.219 16.6666 284.528 19.8666Z" fill="#108CFF"/>
<path d="M329.857 20.5786C328.287 22.1786 327.698 29.4674 328.091 41.3785L328.679 59.8674L344.966 60.4008C361.057 60.9341 361.057 60.9341 361.057 56.4897C361.057 52.4008 360.272 52.0452 350.853 51.5119C338.687 50.8008 336.528 46.7119 346.928 44.0452C351.834 42.8008 353.208 41.5563 353.208 38.0008C353.208 33.9119 352.619 33.7341 346.34 34.623C340.453 35.5119 339.472 35.1563 339.472 32.1341C339.472 29.2897 340.845 28.7563 350.264 28.7563C359.291 28.7563 361.057 28.223 361.057 25.5563C361.057 23.7786 360.076 21.4674 358.702 20.223C355.366 17.2008 332.604 17.3786 329.857 20.5786Z" fill="#108CFF"/>
<path d="M369.298 38.8889L369.887 59.8667L386.174 60.4L402.264 60.9333V52.7556C402.264 45.1111 402.068 44.5778 397.947 45.8222C395.593 46.3556 392.453 48.1333 390.883 49.3778C389.509 50.8 387.155 51.8667 385.781 51.8667C380.483 51.8667 378.717 47.2445 378.717 32.8444C378.717 18.2667 378.717 18.0889 373.811 18.0889H368.709L369.298 38.8889Z" fill="#108CFF"/>
</svg>
