<svg width="96" height="96" viewBox="0 0 96 96" fill="none" xmlns="http://www.w3.org/2000/svg">
<path fill-rule="evenodd" clip-rule="evenodd" d="M8.19337 1.15588H59.6308C59.5652 1.15588 59.6308 1.21672 59.7618 1.33839C60.9413 2.73763 70.4424 10.9506 76.4053 16.0608C79.1573 18.4943 81.1886 20.1977 81.1886 20.1977V20.3802C81.1886 20.3802 72.2772 20.6236 66.1178 20.3802C59.9584 20.1977 59.6963 13.5665 59.6963 13.5665L59.7618 1.33839L59.6963 13.5665C59.6963 13.5665 59.9584 20.1977 66.1178 20.3802C72.2772 20.6236 81.1886 20.3802 81.1886 20.3802V54.2662C78.371 53.1103 75.2258 52.5019 71.9495 52.5019C59.3687 52.5019 49.1467 61.9316 49.1467 73.6122C49.1467 85.2928 59.3687 94.7833 71.9495 94.7833C73.7842 94.7833 75.4879 94.6008 77.1916 94.2357C76.2742 94.6008 75.2913 94.8441 74.2429 94.8441H8.19337C4.3929 94.8441 1.24768 91.924 1.24768 88.3954V7.60455C1.24768 4.07604 4.3929 1.15588 8.19337 1.15588ZM9.3073 78.6008H26.5405H9.3073ZM26.8026 68.9886H40.7595H26.8026ZM9.3073 59.3156H44.0357H9.3073ZM9.3073 68.9886H23.1987H9.3073ZM37.4177 49.5209H54.3887H37.4177ZM9.3073 49.5209H33.4861H9.3073ZM9.3073 39.8479H47.5086H9.3073ZM51.7677 39.8479H71.8185H51.7677ZM27.0647 30.0532H71.8185H27.0647ZM9.37282 30.0532H23.0021H9.37282ZM9.37282 20.1977H33.3551H9.37282ZM66.1178 20.3802C59.9584 20.1977 59.6963 13.5665 59.6963 13.5665L59.7618 1.33839L59.6963 13.5665C59.6963 13.5665 59.9584 20.1977 66.1178 20.3802C72.2772 20.6236 81.1886 20.3802 81.1886 20.3802C81.1886 20.3802 72.2772 20.6236 66.1178 20.3802Z" fill="#E9EEF3"/>
<path d="M66.1178 20.3802C59.9584 20.1977 59.6963 13.5665 59.6963 13.5665L59.7618 1.33839L59.6963 13.5665C59.6963 13.5665 59.9584 20.1977 66.1178 20.3802ZM66.1178 20.3802C72.2772 20.6236 81.1886 20.3802 81.1886 20.3802C81.1886 20.3802 72.2772 20.6236 66.1178 20.3802ZM8.19337 1.15588H59.6308C59.5652 1.15588 59.6308 1.21672 59.7618 1.33839C60.9413 2.73763 70.4424 10.9506 76.4053 16.0608C79.1573 18.4943 81.1886 20.1977 81.1886 20.1977V20.3802C81.1886 20.3802 72.2772 20.6236 66.1178 20.3802C59.9584 20.1977 59.6963 13.5665 59.6963 13.5665L59.7618 1.33839L59.6963 13.5665C59.6963 13.5665 59.9584 20.1977 66.1178 20.3802C72.2772 20.6236 81.1886 20.3802 81.1886 20.3802V54.2662C78.371 53.1103 75.2258 52.5019 71.9495 52.5019C59.3687 52.5019 49.1467 61.9316 49.1467 73.6122C49.1467 85.2928 59.3687 94.7833 71.9495 94.7833C73.7842 94.7833 75.4879 94.6008 77.1916 94.2357C76.2742 94.6008 75.2913 94.8441 74.2429 94.8441H8.19337C4.3929 94.8441 1.24768 91.9239 1.24768 88.3954V7.60455C1.24768 4.07604 4.3929 1.15588 8.19337 1.15588ZM9.3073 78.6008H26.5405H9.3073ZM26.8026 68.9886H40.7595H26.8026ZM9.3073 59.3156H44.0357H9.3073ZM9.3073 68.9886H23.1987H9.3073ZM37.4177 49.5209H54.3887H37.4177ZM9.3073 49.5209H33.4862H9.3073ZM9.3073 39.8479H47.5086H9.3073ZM51.7677 39.8479H71.8185H51.7677ZM27.0647 30.0532H71.8185H27.0647ZM9.37282 30.0532H23.0021H9.37282ZM9.37282 20.1977H33.3551H9.37282Z" stroke="black" stroke-width="0.677399" stroke-linejoin="round"/>
<path fill-rule="evenodd" clip-rule="evenodd" d="M81.1887 20.3802L59.7619 1.33838L59.6964 13.5665C59.6964 13.5665 59.9585 20.1977 66.1179 20.3802C72.2773 20.6236 81.1887 20.3802 81.1887 20.3802Z" fill="#C2C6C7" stroke="black" stroke-width="0.677399" stroke-linejoin="round"/>
<path fill-rule="evenodd" clip-rule="evenodd" d="M71.9497 52.5018C84.5305 52.5018 94.7525 61.9315 94.7525 73.6121C94.7525 85.2927 84.5305 94.7832 71.9497 94.7832C59.3688 94.7832 49.1469 85.2927 49.1469 73.6121C49.1469 61.9315 59.3688 52.5018 71.9497 52.5018Z" fill="#76AB7D" stroke="black" stroke-width="0.677399" stroke-linejoin="round"/>
<path d="M60.7446 77.8707L68.3456 84.9886L83.4164 65.2776" stroke="#E9EEF3" stroke-width="1.01615" stroke-linejoin="round"/>
<path d="M9.37292 20.1978H33.3552" stroke="black" stroke-width="0.677399" stroke-linejoin="round"/>
<path d="M9.37292 30.0532H23.0022" stroke="black" stroke-width="0.677399" stroke-linejoin="round"/>
<path d="M27.0646 30.0532H71.8184" stroke="black" stroke-width="0.677399" stroke-linejoin="round"/>
<path d="M51.7676 39.8479H71.8183" stroke="black" stroke-width="0.677399" stroke-linejoin="round"/>
<path d="M9.30737 39.8479H47.5087" stroke="black" stroke-width="0.677399" stroke-linejoin="round"/>
<path d="M9.30737 49.521H33.4862" stroke="black" stroke-width="0.677399" stroke-linejoin="round"/>
<path d="M37.4178 49.521H54.3889" stroke="black" stroke-width="0.677399" stroke-linejoin="round"/>
<path d="M9.30737 68.9885H23.1987" stroke="black" stroke-width="0.677399" stroke-linejoin="round"/>
<path d="M9.30737 59.3157H44.0358" stroke="black" stroke-width="0.677399" stroke-linejoin="round"/>
<path d="M26.8024 68.9885H40.7593" stroke="black" stroke-width="0.677399" stroke-linejoin="round"/>
<path d="M9.30737 78.6007H26.5405" stroke="black" stroke-width="0.677399" stroke-linejoin="round"/>
<path d="M30.2753 78.6007H40.7593" stroke="black" stroke-width="0.677399" stroke-linejoin="round"/>
</svg>
